<mxfile host="app.diagrams.net" agent="Mozilla/5.0 (Macintosh; Intel Mac OS X 10_15_7) AppleWebKit/537.36 (KHTML, like Gecko) Chrome/127.0.0.0 Safari/537.36" version="24.7.7">
  <diagram id="C5RBs43oDa-KdzZeNtuy" name="Page-1">
    <mxGraphModel dx="1026" dy="651" grid="1" gridSize="10" guides="1" tooltips="1" connect="1" arrows="1" fold="1" page="1" pageScale="1" pageWidth="827" pageHeight="1169" math="0" shadow="0">
      <root>
        <mxCell id="WIyWlLk6GJQsqaUBKTNV-0" />
        <mxCell id="WIyWlLk6GJQsqaUBKTNV-1" parent="WIyWlLk6GJQsqaUBKTNV-0" />
        <mxCell id="HQfXEw7NLycmqny2-dz6-0" value="Tomcat Server" style="whiteSpace=wrap;html=1;aspect=fixed;align=left;verticalAlign=top;fontSize=18;spacingLeft=5;spacingTop=5;" vertex="1" parent="WIyWlLk6GJQsqaUBKTNV-1">
          <mxGeometry x="90" y="100" width="200" height="200" as="geometry" />
        </mxCell>
        <mxCell id="HQfXEw7NLycmqny2-dz6-5" value="" style="edgeStyle=orthogonalEdgeStyle;rounded=0;orthogonalLoop=1;jettySize=auto;html=1;entryX=0.5;entryY=0;entryDx=0;entryDy=0;" edge="1" parent="WIyWlLk6GJQsqaUBKTNV-1" source="HQfXEw7NLycmqny2-dz6-1" target="HQfXEw7NLycmqny2-dz6-9">
          <mxGeometry relative="1" as="geometry">
            <mxPoint x="205" y="445" as="targetPoint" />
          </mxGeometry>
        </mxCell>
        <mxCell id="HQfXEw7NLycmqny2-dz6-6" value="Create object" style="text;html=1;align=center;verticalAlign=middle;resizable=0;points=[];autosize=1;strokeColor=none;fillColor=none;fontSize=14;" vertex="1" parent="WIyWlLk6GJQsqaUBKTNV-1">
          <mxGeometry x="200" y="330" width="110" height="30" as="geometry" />
        </mxCell>
        <mxCell id="HQfXEw7NLycmqny2-dz6-1" value="Servlet Container" style="whiteSpace=wrap;html=1;aspect=fixed;fillColor=#0050ef;strokeColor=#001DBC;fontColor=#ffffff;fontSize=18;shadow=1;" vertex="1" parent="WIyWlLk6GJQsqaUBKTNV-1">
          <mxGeometry x="140" y="150" width="130" height="130" as="geometry" />
        </mxCell>
        <mxCell id="HQfXEw7NLycmqny2-dz6-9" value="Dispature Servlet" style="swimlane;whiteSpace=wrap;html=1;startSize=40;fontSize=18;" vertex="1" parent="WIyWlLk6GJQsqaUBKTNV-1">
          <mxGeometry x="101.88" y="420" width="206.25" height="205" as="geometry" />
        </mxCell>
        <mxCell id="HQfXEw7NLycmqny2-dz6-17" value="WebApplicationContext extending ApplicationContext" style="text;html=1;align=center;verticalAlign=middle;whiteSpace=wrap;rounded=0;fontSize=14;" vertex="1" parent="HQfXEw7NLycmqny2-dz6-9">
          <mxGeometry x="30" y="60" width="150" height="90" as="geometry" />
        </mxCell>
        <mxCell id="HQfXEw7NLycmqny2-dz6-16" style="edgeStyle=orthogonalEdgeStyle;rounded=0;orthogonalLoop=1;jettySize=auto;html=1;" edge="1" parent="HQfXEw7NLycmqny2-dz6-9" source="HQfXEw7NLycmqny2-dz6-9" target="HQfXEw7NLycmqny2-dz6-17">
          <mxGeometry relative="1" as="geometry">
            <mxPoint x="98.12" y="70" as="targetPoint" />
          </mxGeometry>
        </mxCell>
        <mxCell id="HQfXEw7NLycmqny2-dz6-19" value="&lt;font style=&quot;font-size: 14px;&quot;&gt;Requires configuration file to create and define beans in IOC&amp;nbsp;&lt;/font&gt;" style="whiteSpace=wrap;html=1;fontSize=18;fontStyle=1;startSize=40;" vertex="1" parent="WIyWlLk6GJQsqaUBKTNV-1">
          <mxGeometry x="380" y="495" width="260" height="60" as="geometry" />
        </mxCell>
        <mxCell id="HQfXEw7NLycmqny2-dz6-21" style="edgeStyle=orthogonalEdgeStyle;rounded=0;orthogonalLoop=1;jettySize=auto;html=1;entryX=0;entryY=0.5;entryDx=0;entryDy=0;" edge="1" parent="WIyWlLk6GJQsqaUBKTNV-1" source="HQfXEw7NLycmqny2-dz6-17" target="HQfXEw7NLycmqny2-dz6-19">
          <mxGeometry relative="1" as="geometry" />
        </mxCell>
      </root>
    </mxGraphModel>
  </diagram>
</mxfile>
